<?xml version="1.0" encoding="UTF-8"?>
<svg version="1.1" xmlns="http://www.w3.org/2000/svg" width="16" height="16">
<path d="M0 0 C1.9375 1.6875 1.9375 1.6875 3 4 C2.92897215 7.4803645 2.61415498 9.29485909 0.3125 11.9375 C-2.89943934 13.41325591 -4.66474802 13.06444212 -8 12 C-9.9375 10.3125 -9.9375 10.3125 -11 8 C-10.92897215 4.5196355 -10.61415498 2.70514091 -8.3125 0.0625 C-5.10056066 -1.41325591 -3.33525198 -1.06444212 0 0 Z " fill="#184AA8" transform="translate(12,2)"/>
<path d="M0 0 C0.6875 2.8125 0.6875 2.8125 1 6 C-0.4375 7.875 -0.4375 7.875 -2 9 C-2 8.34 -2 7.68 -2 7 C-2.66 7 -3.32 7 -4 7 C-5.5 5.625 -5.5 5.625 -7 4 C-7.66 3.34 -8.32 2.68 -9 2 C-8.34 2 -7.68 2 -7 2 C-7 1.34 -7 0.68 -7 0 C-3.86650268 -1.04449911 -3.01031744 -0.93423645 0 0 Z " fill="#1D53BB" transform="translate(14,4)"/>
<path d="M0 0 C-0.66 0.66 -1.32 1.32 -2 2 C-2.99 2 -3.98 2 -5 2 C-5 3.32 -5 4.64 -5 6 C-6.65 5.67 -8.3 5.34 -10 5 C-10.33 5.99 -10.66 6.98 -11 8 C-10.51970669 2.59670027 -10.51970669 2.59670027 -8.3125 0.0625 C-5.21524075 -1.36056506 -3.24533993 -0.81133498 0 0 Z " fill="#2D8437" transform="translate(12,2)"/>
<path d="M0 0 C0.99 0.33 1.98 0.66 3 1 C3 1.66 3 2.32 3 3 C3.66 3 4.32 3 5 3 C5 3.99 5 4.98 5 6 C3.68 6 2.36 6 1 6 C0.34 4.35 -0.32 2.7 -1 1 C-0.67 0.67 -0.34 0.34 0 0 Z " fill="#3FBC4E" transform="translate(7,8)"/>
</svg>
